# xmcd
# 
# Track frame offsets:
#     150
#     17514
#     29724
#     45986
#     62675
#     80043
#     94478
#     107219
#     123591
#     145037
#     165206
#     175617
#     196191
#     211934
# 
# Disc length: 3003
# 
# Revision: 2
# Processed by: cddbd v1.5.2PL0 Copyright (c) Steve Scherf et al.
# Submitted via: fre:ac v1.0.31
# 
DISCID=b60bb90e
DTITLE=DJ Edelweiß and die Tiroler Alpenhosen - Alpenhose - Die härtesten Hüttenhits [CD 2)
DYEAR=2000
DGENRE=Party and Stimmung
TTITLE0=Wahnsinn
TTITLE1=Marmor, Stein und Eisen bricht
TTITLE2=Skandal im Sperrbezirk
TTITLE3=Aber bitte mit Sahne
TTITLE4=Barfuß durch den Sommer
TTITLE5=Verliebte Jungs
TTITLE6=Mendocino
TTITLE7=Im Wagen vor mir
TTITLE8=Reif für die Insel
TTITLE9=Macho Macho
TTITLE10=Rote Lippen soll man küssen
TTITLE11=Über sieben Brücken Mußt du geh'n
TTITLE12=Pure Lust am Leben
TTITLE13=Anita
EXTD=YEAR: 2000
EXTT0=
EXTT1=
EXTT2=
EXTT3=
EXTT4=
EXTT5=
EXTT6=
EXTT7=
EXTT8=
EXTT9=
EXTT10=
EXTT11=
EXTT12=
EXTT13=
PLAYORDER=
